# xmcd
#
# Track frame offsets:
#	150
#	1513
#	12409
#	22755
#	33849
#	45139
#	56182
#	68460
#	78882
#	90770
#	101410
#	111237
#	123109
#	133927
#	145727
#	157121
#	168707
#	177372
#	188874
#	198570
#	211457
#	222432
#	233278
#	242398
#	252362
#	263037
#	275407
#	286582
#	298513
#	309617
#	321434
#	330992
#
# Disc length: 4564 seconds
#
# Revision: 0
# Processed by: cddbd v1.5.2PL0 Copyright (c) Steve Scherf et al.
# Submitted via: EasyCDDAExtractor 10.0.2.1
#
DISCID=ab11d220
DTITLE=Jim Reeves - Gentlemen Jim - 1955-1959 - Disc 01
DYEAR=1989
DGENRE=Country
TTITLE0=Spoken Intro
TTITLE1=I'm Hurtin' Inside
TTITLE2=If You Were Mine
TTITLE3=That's A Sad Affair
TTITLE4=Younder Comes A Sucker
TTITLE5=Jimbo Jenkins
TTITLE6=I've Lived A Lot In My Life
TTITLE7=Ichabod Crane
TTITLE8=My Lips Are Sealed
TTITLE9=Your Old Love Letters
TTITLE10=Waltzing On Top Of The World
TTITLE11=Beyond A Shadow Of A Doubt
TTITLE12=Love Me A Little Bit More
TTITLE13=According To My Heart
TTITLE14=Each Time You Leave
TTITLE15=Highway To Nowhere
TTITLE16=Breeze (Bring My Baby Back To Me)
TTITLE17=Roly Poly
TTITLE18=Tweedle O'Twill
TTITLE19=Have I Told You Lately That I Love You
TTITLE20=Oklahoma Hills
TTITLE21=My Lips Are Sealed
TTITLE22=Pickin' A Chicken
TTITLE23=I've Got Just The Thing For You
TTITLE24=Mother Of A Honky Tonk Girl
TTITLE25=Am I Losing You
TTITLE26=According To My Heart
TTITLE27=Don't Tell Me
TTITLE28=I Can't Fly
TTITLE29=Don't Ask Me Why
TTITLE30=Waiting For A Train
TTITLE31=Look Behind You
EXTD=
EXTT0=
EXTT1=
EXTT2=
EXTT3=
EXTT4=
EXTT5=
EXTT6=
EXTT7=
EXTT8=
EXTT9=
EXTT10=
EXTT11=
EXTT12=
EXTT13=
EXTT14=
EXTT15=
EXTT16=
EXTT17=
EXTT18=
EXTT19=
EXTT20=
EXTT21=
EXTT22=
EXTT23=
EXTT24=
EXTT25=
EXTT26=
EXTT27=
EXTT28=
EXTT29=
EXTT30=
EXTT31=
PLAYORDER=
